{"title":"Battle.Los.Angeles.2011.R5.AC3-5.1.NEW.AUDIO.XViD.Hive-CM8","uid":6292469,"size":1985094099,"categoryP":"video","categoryS":"movies","magnet":"?xt=urn:btih:760e2a76cfbf2399015f95de7baac71b1a2e912f&amp;dn=Battle.Los.Angeles.2011.R5.AC3-5.1.NEW.AUDIO.XViD.Hive-CM8&amp;tr=udp%3A%2F%2Ftracker.openbittorrent.com%3A80&amp;tr=udp%3A%2F%2Fopen.demonii.com%3A1337&amp;tr=udp%3A%2F%2Ftracker.coppersurfer.tk%3A6969&amp;tr=udp%3A%2F%2Fexodus.desync.com%3A6969","seeders":0,"leechers":0,"uploader":"sceneline","files":6,"time":1301870329,"description":"-\nhttp:// www. Speed. Cd       \nhttp:// www. Speed. Cd       the fast  and The Hottest Private Tracker on the net\n\nPlease Seed back to make the speed Faster!!!\n\nand don't forget to visit      ...... www. Speed. Cd..........\n-[img]http://img600.imageshack.us/img600/9474/battlejk.jpg[/img]\n\n[color=blue][size=5][b]Battle Los Angeles 2011 R5 AC3-5.1 NEW AUDIO XViD Hive-CM8[/b][/size][/color]\n\n\n[b]Thx Hive\n\nCM8 Doing It Right The First Time :D\n\n\nSources:\n\nRussian DVD-9\nInoplanetnoe.vtorzhenie.Bitva.za.Los-Andzheles.2011.D.DVD.ELEKTRI4KA  thx\n\nNew sweet Line Audio \npeeraccess (thx guys)\n\n\nEncode:\nthe usual - brightness,sharpness,rgb,denoise\ni synced audio to the r5 lipsync and entered it back into the russian 5.1 track\n\nenjoy\n\n\nVideo: 720x304 @bitrate 1900 2pass\nAudio: English AC3 5.1 @448\nSample: yes included[/b]\n\n\n\n[url]http://www.imdb.com/title/tt1217613/[/url]\n\n\nGeneral\nComplete name                    : Battle.Los.Angeles.2011.R5.AC3-5.1.NEW.AUDIO.XViD.Hive-CM8.avi\nFormat                           : AVI\nFormat/Info                      : Audio Video Interleave\nFile size                        : 1.83 GiB\nDuration                         : 1h 51mn\nOverall bit rate                 : 2 357 Kbps\nWriting application              : Nandub v1.0rc2\nWriting library                  : Nandub build 1853/release\n\nVideo\nID                               : 0\nFormat                           : MPEG-4 Visual\nFormat profile                   : Advanced Simple@L5\nFormat settings, BVOP            : Yes\nFormat settings, QPel            : Yes\nFormat settings, GMC             : No warppoints\nFormat settings, Matrix          : Default (H.263)\nMuxing mode                      : Packed bitstream\nCodec ID                         : XVID\nCodec ID/Hint                    : XviD\nDuration                         : 1h 51mn\nBit rate                         : 1 899 Kbps\nWidth                            : 720 pixels\nHeight                           : 304 pixels\nDisplay aspect ratio             : 2.35:1\nFrame rate                       : 25.000 fps\nColor space                      : YUV\nChroma subsampling               : 4:2:0\nBit depth                        : 8 bits\nScan type                        : Progressive\nBits/(Pixel*Frame)               : 0.347\nStream size                      : 1.48 GiB (81%)\nWriting library                  : XviD 1.2.1 (UTC 2008-12-04)\n\nAudio\nID                               : 1\nFormat                           : AC-3\nFormat/Info                      : Audio Coding 3\nMode extension                   : CM (complete main)\nCodec ID                         : 2000\nDuration                         : 1h 51mn\nBit rate mode                    : Constant\nBit rate                         : 448 Kbps\nChannel(s)                       : 6 channels\nChannel positions                : Front: L C R, Side: L R, LFE\nSampling rate                    : 48.0 KHz\nBit depth                        : 16 bits\nStream size                      : 357 MiB (19%)\nAlignment                        : Split accross interleaves\nInterleave, duration             : 40 ms (1.00 video frame)\nInterleave, preload duration     : 500 ms\n\n\n\nAaron Eckhart\t... \tSgt. Michael Nantz\nRamon Rodriguez\t... \t2nd Lt. William Martinez\nCory Hardrict\t... \tCpl. Jason Lockett\nGino Anthony Pesi\t... \tCpl. Nick Stavrou\nNe-Yo\t... \tCpl. Kevin Harris\nJames Hiroyuki Liao\t... \tLCpl. Steven Mottola\nBridget Moynahan\t... \tMichele\nNoel Fisher\t... \tPfc. Shaun Lenihan\n\n\nA Marine Staff Sergeant who has just had his retirement approved\ngoes back into the line of duty in order to assist a 2nd Lieutenant\nand his platoon as they fight to reclaim the city of Los Angeles\nfrom alien invaders. \n\n\n\n[img]http://img151.imageshack.us/img151/600/95893484.png[/img]\n[img]http://img19.imageshack.us/img19/4513/babawf.png[/img]\n[img]http://img222.imageshack.us/img222/2287/bbaaba.png[/img]\n[img]http://img703.imageshack.us/img703/7220/bbabaaba.png[/img]\n[img]http://img810.imageshack.us/img810/5809/bbababaaba.png[/img]\n[img]http://img138.imageshack.us/img138/6011/bbabababaaba.png[/img]\n[img]http://img708.imageshack.us/img708/9268/bbababababaaba.png[/img]\n[img]http://img18.imageshack.us/img18/59/bbabababababaaba.png[/img]\n[img]http://img268.imageshack.us/img268/6144/bbababababababaaba.png[/img]\n[img]http://img848.imageshack.us/img848/4456/bbabababababababaaba.png[/img]\n[img]http://img5.imageshack.us/img5/2130/bbababababababababaaba.png[/img]\n\n\n\n\n\nGreetz\n\niNK,LUSi,,MAGNET,THC,LEGi0N,T0XiC,IMAGiNE,ViSiON,WBZ,FLAWL3SS,NOVA\nVik,OneTwo,joey, Rapeseed,D2U,SAFC,goldadvance,MEMORY100,KaN1vE,Unevano,Pinnz,Wayne,Mr Hive\nand all P2P groups \nGreat Work Guys :D\n\n&lt;a class=&quot;__cf_email__&quot; href=&quot;/cdn-cgi/l/email-protection&quot; data-cfemail=&quot;0f4c42374f677a7c67626e6663216c6062&quot;&gt;[email&amp;#160;protected]&lt;/a&gt;&lt;script cf-hash='f9e31' type=&quot;text/javascript&quot;&gt;\n/* &lt;![CDATA[ */!function(){try{var t=&quot;currentScript&quot;in document?document.currentScript:function(){for(var t=document.getElementsByTagName(&quot;script&quot;),e=t.length;e--;)if(t[e].getAttribute(&quot;cf-hash&quot;))return t[e]}();if(t&amp;&amp;t.previousSibling){var e,r,n,i,c=t.previousSibling,a=c.getAttribute(&quot;data-cfemail&quot;);if(a){for(e=&quot;&quot;,r=parseInt(a.substr(0,2),16),n=2;a.length-n;n+=2)i=parseInt(a.substr(n,2),16)^r,e+=String.fromCharCode(i);e=document.createTextNode(e),c.parentNode.replaceChild(e,c)}}}catch(u){}}();/* ]]&gt; */&lt;/script&gt;","torrent":{"xt":"urn:btih:760e2a76cfbf2399015f95de7baac71b1a2e912f","amp;dn":"Battle.Los.Angeles.2011.R5.AC3-5.1.NEW.AUDIO.XViD.Hive-CM8","amp;tr":["udp%3A%2F%2Ftracker.openbittorrent.com%3A80","udp%3A%2F%2Fopen.demonii.com%3A1337","udp%3A%2F%2Ftracker.coppersurfer.tk%3A6969","udp%3A%2F%2Fexodus.desync.com%3A6969"],"infoHash":"760e2a76cfbf2399015f95de7baac71b1a2e912f","infoHashBuffer":{"type":"Buffer","data":[118,14,42,118,207,191,35,153,1,95,149,222,123,170,199,27,26,46,145,47]},"announce":[],"urlList":[]}}